# xmcd
#
# Track frame offsets:
#	150
#	16598
#	34338
#	50445
#	67539
#	83329
#	98940
#	114957
#	132017
#	151254
#	165664
#	179154
#
# Disc length: 2541 seconds
#
# Revision: 2202829945
# Processed by: cddbd v1.5.2PL0 Copyright (c) Steve Scherf et al.
# Submitted via: EZCDAudioConverter 8.1.0.1
#
DISCID=8409eb0c
DTITLE=Rodney Atkins - Greatest Hits
DYEAR=2015
DGENRE=Country
TTITLE0=If You're Going Through Hell (Before The Devil Even Knows)
TTITLE1=Watching You
TTITLE2=These Are My People
TTITLE3=Cleaning This Gun (Come On In Boy)
TTITLE4=Take A Back Road
TTITLE5=Farmer's Daughter
TTITLE6=It's America
TTITLE7=Invisibly Shaken
TTITLE8=Honesty (Write Me A List)
TTITLE9=He's Mine
TTITLE10=About The South
TTITLE11=Eat Sleep Love You Repeat
EXTD=
EXTT0=
EXTT1=
EXTT2=
EXTT3=
EXTT4=
EXTT5=
EXTT6=
EXTT7=
EXTT8=
EXTT9=
EXTT10=
EXTT11=
PLAYORDER=
